<mxfile host="app.diagrams.net" agent="Mozilla/5.0 (X11; Linux x86_64) AppleWebKit/537.36 (KHTML, like Gecko) Chrome/135.0.0.0 Safari/537.36" version="26.2.9">
  <diagram id="SXpoONtn-O-yAB3juRxI" name="第 1 页">
    <mxGraphModel dx="1332" dy="3133" grid="1" gridSize="10" guides="1" tooltips="1" connect="1" arrows="1" fold="1" page="1" pageScale="1" pageWidth="850" pageHeight="1100" math="0" shadow="0">
      <root>
        <mxCell id="0" />
        <mxCell id="1" parent="0" />
        <mxCell id="16" value="&lt;font style=&quot;font-size: 18px;&quot;&gt;&lt;b&gt;&lt;u&gt;senddiffs()&lt;/u&gt;&lt;/b&gt;&lt;/font&gt;" style="text;html=1;align=center;verticalAlign=middle;resizable=0;points=[];autosize=1;strokeColor=none;fillColor=none;" parent="1" vertex="1">
          <mxGeometry x="30" y="380" width="120" height="40" as="geometry" />
        </mxCell>
        <mxCell id="33" value="" style="group" parent="1" vertex="1" connectable="0">
          <mxGeometry x="120" y="80" width="680" height="390" as="geometry" />
        </mxCell>
        <mxCell id="15" value="" style="group" parent="33" vertex="1" connectable="0">
          <mxGeometry x="10" width="670" height="320" as="geometry" />
        </mxCell>
        <mxCell id="4" value="&lt;font style=&quot;font-size: 18px;&quot;&gt;&lt;b&gt;host1&lt;/b&gt;&lt;/font&gt;" style="text;html=1;align=center;verticalAlign=middle;resizable=0;points=[];autosize=1;strokeColor=none;fillColor=none;" parent="15" vertex="1">
          <mxGeometry x="145" width="70" height="40" as="geometry" />
        </mxCell>
        <mxCell id="7" value="&lt;font style=&quot;font-size: 18px;&quot;&gt;&lt;b&gt;host2&lt;/b&gt;&lt;/font&gt;&lt;span style=&quot;font-family: monospace; font-size: 0px; text-align: start;&quot;&gt;%3CmxGraphModel%3E%3Croot%3E%3CmxCell%20id%3D%220%22%2F%3E%3CmxCell%20id%3D%221%22%20parent%3D%220%22%2F%3E%3CmxCell%20id%3D%222%22%20value%3D%22%26lt%3Bfont%20style%3D%26quot%3Bfont-size%3A%2018px%3B%26quot%3B%26gt%3B%26lt%3Bb%26gt%3Bhost1%26lt%3B%2Fb%26gt%3B%26lt%3B%2Ffont%26gt%3B%22%20style%3D%22text%3Bhtml%3D1%3Balign%3Dcenter%3BverticalAlign%3Dmiddle%3Bresizable%3D0%3Bpoints%3D%5B%5D%3Bautosize%3D1%3BstrokeColor%3Dnone%3BfillColor%3Dnone%3B%22%20vertex%3D%221%22%20parent%3D%221%22%3E%3CmxGeometry%20x%3D%22175%22%20y%3D%2290%22%20width%3D%2270%22%20height%3D%2240%22%20as%3D%22geometry%22%2F%3E%3C%2FmxCell%3E%3C%2Froot%3E%3C%2FmxGraphModel%3E&lt;/span&gt;" style="text;html=1;align=center;verticalAlign=middle;resizable=0;points=[];autosize=1;strokeColor=none;fillColor=none;" parent="15" vertex="1">
          <mxGeometry x="360" width="70" height="40" as="geometry" />
        </mxCell>
        <mxCell id="8" value="&lt;font style=&quot;font-size: 18px;&quot;&gt;&lt;b&gt;host3&lt;/b&gt;&lt;/font&gt;" style="text;html=1;align=center;verticalAlign=middle;resizable=0;points=[];autosize=1;strokeColor=none;fillColor=none;" parent="15" vertex="1">
          <mxGeometry x="575" width="70" height="40" as="geometry" />
        </mxCell>
        <mxCell id="32" value="" style="group" parent="15" vertex="1" connectable="0">
          <mxGeometry y="60" width="670" height="260" as="geometry" />
        </mxCell>
        <mxCell id="2" value="&lt;font style=&quot;font-size: 18px;&quot;&gt;home(RO)&amp;nbsp;&lt;/font&gt;&lt;div&gt;&lt;font style=&quot;font-size: 15px;&quot;&gt;wtnt=0 rdnt=1&lt;/font&gt;&lt;/div&gt;" style="rounded=0;whiteSpace=wrap;html=1;" parent="32" vertex="1">
          <mxGeometry x="120" width="120" height="50" as="geometry" />
        </mxCell>
        <mxCell id="3" value="&lt;font style=&quot;font-size: 18px;&quot;&gt;&lt;i&gt;page 1&lt;/i&gt;&lt;/font&gt;" style="text;html=1;align=center;verticalAlign=middle;resizable=0;points=[];autosize=1;strokeColor=none;fillColor=none;" parent="32" vertex="1">
          <mxGeometry y="10" width="80" height="40" as="geometry" />
        </mxCell>
        <mxCell id="5" value="&lt;font style=&quot;font-size: 18px;&quot;&gt;cache(RW)&amp;nbsp;&lt;/font&gt;&lt;div&gt;&lt;font style=&quot;font-size: 15px;&quot;&gt;wtnt=1&lt;/font&gt;&lt;/div&gt;" style="rounded=0;whiteSpace=wrap;html=1;fillColor=#f8cecc;strokeColor=#b85450;" parent="32" vertex="1">
          <mxGeometry x="335" width="120" height="50" as="geometry" />
        </mxCell>
        <mxCell id="6" value="&lt;font style=&quot;font-size: 18px;&quot;&gt;cache(RW)&amp;nbsp;&lt;/font&gt;&lt;div&gt;&lt;font style=&quot;font-size: 15px;&quot;&gt;wtnt=1&lt;/font&gt;&lt;/div&gt;" style="rounded=0;whiteSpace=wrap;html=1;fillColor=#fff2cc;strokeColor=#d6b656;" parent="32" vertex="1">
          <mxGeometry x="550" width="120" height="50" as="geometry" />
        </mxCell>
        <mxCell id="9" value="&lt;font style=&quot;font-size: 18px;&quot;&gt;home(RW)&amp;nbsp;&lt;/font&gt;&lt;div&gt;&lt;font style=&quot;font-size: 15px;&quot;&gt;wtnt=3 rdnt=1&lt;/font&gt;&lt;/div&gt;" style="rounded=0;whiteSpace=wrap;html=1;fillColor=#f8cecc;strokeColor=#b85450;" parent="32" vertex="1">
          <mxGeometry x="120" y="70" width="120" height="50" as="geometry" />
        </mxCell>
        <mxCell id="10" value="&lt;font style=&quot;font-size: 18px;&quot;&gt;&lt;i&gt;page 2&lt;/i&gt;&lt;/font&gt;" style="text;html=1;align=center;verticalAlign=middle;resizable=0;points=[];autosize=1;strokeColor=none;fillColor=none;" parent="32" vertex="1">
          <mxGeometry y="80" width="80" height="40" as="geometry" />
        </mxCell>
        <mxCell id="11" value="&lt;font style=&quot;font-size: 18px;&quot;&gt;cache(RO)&amp;nbsp;&lt;/font&gt;&lt;div&gt;&lt;font style=&quot;font-size: 15px;&quot;&gt;wtnt=0&lt;/font&gt;&lt;/div&gt;" style="rounded=0;whiteSpace=wrap;html=1;" parent="32" vertex="1">
          <mxGeometry x="335" y="70" width="120" height="50" as="geometry" />
        </mxCell>
        <mxCell id="12" value="&lt;font style=&quot;font-size: 18px;&quot;&gt;home(RO)&amp;nbsp;&lt;/font&gt;&lt;div&gt;&lt;font style=&quot;font-size: 15px;&quot;&gt;wtnt=0 rdnt=1&lt;/font&gt;&lt;/div&gt;" style="rounded=0;whiteSpace=wrap;html=1;" parent="32" vertex="1">
          <mxGeometry x="335" y="140" width="120" height="50" as="geometry" />
        </mxCell>
        <mxCell id="13" value="&lt;font style=&quot;font-size: 18px;&quot;&gt;&lt;i&gt;page 3&lt;/i&gt;&lt;/font&gt;" style="text;html=1;align=center;verticalAlign=middle;resizable=0;points=[];autosize=1;strokeColor=none;fillColor=none;" parent="32" vertex="1">
          <mxGeometry y="145" width="80" height="40" as="geometry" />
        </mxCell>
        <mxCell id="14" value="&lt;font style=&quot;font-size: 18px;&quot;&gt;cache(RW)&amp;nbsp;&lt;/font&gt;&lt;div&gt;&lt;font style=&quot;font-size: 15px;&quot;&gt;wtnt=1&lt;/font&gt;&lt;/div&gt;" style="rounded=0;whiteSpace=wrap;html=1;fillColor=#f8cecc;strokeColor=#b85450;" parent="32" vertex="1">
          <mxGeometry x="120" y="140" width="120" height="50" as="geometry" />
        </mxCell>
        <mxCell id="31" value="&lt;font style=&quot;font-size: 18px;&quot;&gt;&lt;i&gt;hidelock&lt;/i&gt;&lt;/font&gt;" style="text;html=1;align=center;verticalAlign=middle;resizable=0;points=[];autosize=1;strokeColor=none;fillColor=none;" parent="32" vertex="1">
          <mxGeometry x="-5" y="200" width="90" height="40" as="geometry" />
        </mxCell>
        <mxCell id="pj5GS2XVRTdCzJJkZEOm-188" value="" style="endArrow=none;dashed=1;html=1;dashPattern=1 3;strokeWidth=2;rounded=0;" parent="33" edge="1">
          <mxGeometry width="50" height="50" relative="1" as="geometry">
            <mxPoint x="30" y="320" as="sourcePoint" />
            <mxPoint x="210" y="320" as="targetPoint" />
          </mxGeometry>
        </mxCell>
        <mxCell id="34" value="" style="group;" parent="1" vertex="1" connectable="0">
          <mxGeometry x="120" y="380" width="680" height="390" as="geometry" />
        </mxCell>
        <mxCell id="35" value="" style="group" parent="34" vertex="1" connectable="0">
          <mxGeometry x="10" width="670" height="320" as="geometry" />
        </mxCell>
        <mxCell id="39" value="" style="group" parent="35" vertex="1" connectable="0">
          <mxGeometry y="60" width="670" height="260" as="geometry" />
        </mxCell>
        <mxCell id="40" value="&lt;font style=&quot;font-size: 18px;&quot;&gt;home(RO)&amp;nbsp;&lt;/font&gt;&lt;div&gt;&lt;font style=&quot;font-size: 15px;&quot;&gt;wtnt=0 rdnt=1&lt;/font&gt;&lt;/div&gt;" style="rounded=0;whiteSpace=wrap;html=1;fillColor=#fff2cc;strokeColor=#d6b656;" parent="39" vertex="1">
          <mxGeometry x="120" width="120" height="50" as="geometry" />
        </mxCell>
        <mxCell id="41" value="&lt;font style=&quot;font-size: 18px;&quot;&gt;&lt;i&gt;page 1&lt;/i&gt;&lt;/font&gt;" style="text;html=1;align=center;verticalAlign=middle;resizable=0;points=[];autosize=1;strokeColor=none;fillColor=none;" parent="39" vertex="1">
          <mxGeometry y="5" width="80" height="40" as="geometry" />
        </mxCell>
        <mxCell id="42" value="&lt;font style=&quot;font-size: 18px;&quot;&gt;cache(RW)&amp;nbsp;&lt;/font&gt;&lt;div&gt;&lt;font style=&quot;font-size: 15px;&quot;&gt;wtnt=1&lt;/font&gt;&lt;/div&gt;" style="rounded=0;whiteSpace=wrap;html=1;fillColor=#f8cecc;strokeColor=#b85450;" parent="39" vertex="1">
          <mxGeometry x="335" width="120" height="50" as="geometry" />
        </mxCell>
        <mxCell id="43" value="&lt;font style=&quot;font-size: 18px;&quot;&gt;cache(RW)&amp;nbsp;&lt;/font&gt;&lt;div&gt;&lt;font style=&quot;font-size: 15px;&quot;&gt;wtnt=1&lt;/font&gt;&lt;/div&gt;" style="rounded=0;whiteSpace=wrap;html=1;fillColor=#fff2cc;strokeColor=#d6b656;" parent="39" vertex="1">
          <mxGeometry x="550" width="120" height="50" as="geometry" />
        </mxCell>
        <mxCell id="44" value="&lt;font style=&quot;font-size: 18px;&quot;&gt;home(RW)&amp;nbsp;&lt;/font&gt;&lt;div&gt;&lt;font style=&quot;font-size: 15px;&quot;&gt;wtnt=3 rdnt=0&lt;/font&gt;&lt;/div&gt;" style="rounded=0;whiteSpace=wrap;html=1;fillColor=#f8cecc;strokeColor=#b85450;" parent="39" vertex="1">
          <mxGeometry x="120" y="70" width="120" height="50" as="geometry" />
        </mxCell>
        <mxCell id="45" value="&lt;font style=&quot;font-size: 18px;&quot;&gt;&lt;i&gt;page 2&lt;/i&gt;&lt;/font&gt;" style="text;html=1;align=center;verticalAlign=middle;resizable=0;points=[];autosize=1;strokeColor=none;fillColor=none;" parent="39" vertex="1">
          <mxGeometry y="75" width="80" height="40" as="geometry" />
        </mxCell>
        <mxCell id="46" value="&lt;font style=&quot;font-size: 18px;&quot;&gt;cache(RO)&amp;nbsp;&lt;/font&gt;&lt;div&gt;&lt;font style=&quot;font-size: 15px;&quot;&gt;wtnt=0&lt;/font&gt;&lt;/div&gt;" style="rounded=0;whiteSpace=wrap;html=1;" parent="39" vertex="1">
          <mxGeometry x="335" y="70" width="120" height="50" as="geometry" />
        </mxCell>
        <mxCell id="47" value="&lt;font style=&quot;font-size: 18px;&quot;&gt;home(RO)&amp;nbsp;&lt;/font&gt;&lt;div&gt;&lt;font style=&quot;font-size: 15px;&quot;&gt;wtnt=0 rdnt=1&lt;/font&gt;&lt;/div&gt;" style="rounded=0;whiteSpace=wrap;html=1;fillColor=#f8cecc;strokeColor=#b85450;" parent="39" vertex="1">
          <mxGeometry x="335" y="140" width="120" height="50" as="geometry" />
        </mxCell>
        <mxCell id="48" value="&lt;font style=&quot;font-size: 18px;&quot;&gt;&lt;i&gt;page 3&lt;/i&gt;&lt;/font&gt;" style="text;html=1;align=center;verticalAlign=middle;resizable=0;points=[];autosize=1;strokeColor=none;fillColor=none;" parent="39" vertex="1">
          <mxGeometry y="145" width="80" height="40" as="geometry" />
        </mxCell>
        <mxCell id="49" value="&lt;font style=&quot;font-size: 18px;&quot;&gt;cache(RW)&amp;nbsp;&lt;/font&gt;&lt;div&gt;&lt;font style=&quot;font-size: 15px;&quot;&gt;wtnt=1&lt;/font&gt;&lt;/div&gt;" style="rounded=0;whiteSpace=wrap;html=1;fillColor=#f8cecc;strokeColor=#b85450;" parent="39" vertex="1">
          <mxGeometry x="120" y="140" width="120" height="50" as="geometry" />
        </mxCell>
        <mxCell id="50" value="&lt;font style=&quot;font-size: 18px;&quot;&gt;&lt;i&gt;hidelock&lt;/i&gt;&lt;/font&gt;" style="text;html=1;align=center;verticalAlign=middle;resizable=0;points=[];autosize=1;strokeColor=none;fillColor=none;" parent="39" vertex="1">
          <mxGeometry x="-5" y="210" width="90" height="40" as="geometry" />
        </mxCell>
        <mxCell id="51" value="&lt;font style=&quot;font-size: 14px;&quot;&gt;red or yellow? it&#39;s not sure&lt;/font&gt;" style="text;html=1;align=center;verticalAlign=middle;resizable=0;points=[];autosize=1;strokeColor=none;fillColor=none;" parent="35" vertex="1">
          <mxGeometry x="85" y="30" width="190" height="30" as="geometry" />
        </mxCell>
        <mxCell id="52" value="&lt;b style=&quot;color: rgb(63, 63, 63); scrollbar-color: light-dark(#e2e2e2, #4b4b4b)&lt;br/&gt;&#x9;&#x9;&#x9;&#x9;&#x9;light-dark(#fbfbfb, var(--dark-panel-color)); font-size: 18px;&quot;&gt;&lt;u style=&quot;scrollbar-color: light-dark(#e2e2e2, #4b4b4b)&lt;br/&gt;&#x9;&#x9;&#x9;&#x9;&#x9;light-dark(#fbfbfb, var(--dark-panel-color));&quot;&gt;sendwtnts()&lt;/u&gt;&lt;/b&gt;" style="text;html=1;align=center;verticalAlign=middle;resizable=0;points=[];autosize=1;strokeColor=none;fillColor=none;" parent="1" vertex="1">
          <mxGeometry x="30" y="680" width="120" height="40" as="geometry" />
        </mxCell>
        <mxCell id="111" value="" style="group" parent="1" vertex="1" connectable="0">
          <mxGeometry x="120" y="880" width="715" height="1160" as="geometry" />
        </mxCell>
        <mxCell id="53" value="" style="group;" parent="111" vertex="1" connectable="0">
          <mxGeometry width="715" height="1160" as="geometry" />
        </mxCell>
        <mxCell id="54" value="" style="group" parent="53" vertex="1" connectable="0">
          <mxGeometry x="10" y="-200" width="670" height="320" as="geometry" />
        </mxCell>
        <mxCell id="58" value="" style="group" parent="54" vertex="1" connectable="0">
          <mxGeometry y="60" width="670" height="260" as="geometry" />
        </mxCell>
        <mxCell id="59" value="&lt;font style=&quot;font-size: 18px;&quot;&gt;home(RO)&amp;nbsp;&lt;/font&gt;&lt;div&gt;&lt;font style=&quot;font-size: 15px;&quot;&gt;wtnt=0 rdnt=1&lt;/font&gt;&lt;/div&gt;" style="rounded=0;whiteSpace=wrap;html=1;fillColor=#fff2cc;strokeColor=#d6b656;" parent="58" vertex="1">
          <mxGeometry x="120" width="120" height="50" as="geometry" />
        </mxCell>
        <mxCell id="60" value="&lt;font style=&quot;font-size: 18px;&quot;&gt;&lt;i&gt;page 1&lt;/i&gt;&lt;/font&gt;" style="text;html=1;align=center;verticalAlign=middle;resizable=0;points=[];autosize=1;strokeColor=none;fillColor=none;" parent="58" vertex="1">
          <mxGeometry y="5" width="80" height="40" as="geometry" />
        </mxCell>
        <mxCell id="61" value="&lt;font style=&quot;font-size: 18px;&quot;&gt;cache(RW)&amp;nbsp;&lt;/font&gt;&lt;div&gt;&lt;font style=&quot;font-size: 15px;&quot;&gt;wtnt=1&lt;/font&gt;&lt;/div&gt;" style="rounded=0;whiteSpace=wrap;html=1;fillColor=#f8cecc;strokeColor=#b85450;" parent="58" vertex="1">
          <mxGeometry x="335" width="120" height="50" as="geometry" />
        </mxCell>
        <mxCell id="62" value="&lt;font style=&quot;font-size: 18px;&quot;&gt;cache(RW)&amp;nbsp;&lt;/font&gt;&lt;div&gt;&lt;font style=&quot;font-size: 15px;&quot;&gt;wtnt=1&lt;/font&gt;&lt;/div&gt;" style="rounded=0;whiteSpace=wrap;html=1;fillColor=#fff2cc;strokeColor=#d6b656;" parent="58" vertex="1">
          <mxGeometry x="550" width="120" height="50" as="geometry" />
        </mxCell>
        <mxCell id="63" value="&lt;font style=&quot;font-size: 18px;&quot;&gt;home(RW)&amp;nbsp;&lt;/font&gt;&lt;div&gt;&lt;font style=&quot;font-size: 15px;&quot;&gt;wtnt=3 rdnt=0&lt;/font&gt;&lt;/div&gt;" style="rounded=0;whiteSpace=wrap;html=1;fillColor=#f8cecc;strokeColor=#b85450;" parent="58" vertex="1">
          <mxGeometry x="120" y="70" width="120" height="50" as="geometry" />
        </mxCell>
        <mxCell id="64" value="&lt;font style=&quot;font-size: 18px;&quot;&gt;&lt;i&gt;page 2&lt;/i&gt;&lt;/font&gt;" style="text;html=1;align=center;verticalAlign=middle;resizable=0;points=[];autosize=1;strokeColor=none;fillColor=none;" parent="58" vertex="1">
          <mxGeometry y="75" width="80" height="40" as="geometry" />
        </mxCell>
        <mxCell id="65" value="&lt;font style=&quot;font-size: 18px;&quot;&gt;cache(RO)&amp;nbsp;&lt;/font&gt;&lt;div&gt;&lt;font style=&quot;font-size: 15px;&quot;&gt;wtnt=0&lt;/font&gt;&lt;/div&gt;" style="rounded=0;whiteSpace=wrap;html=1;" parent="58" vertex="1">
          <mxGeometry x="335" y="70" width="120" height="50" as="geometry" />
        </mxCell>
        <mxCell id="66" value="&lt;font style=&quot;font-size: 18px;&quot;&gt;home(RO)&amp;nbsp;&lt;/font&gt;&lt;div&gt;&lt;font style=&quot;font-size: 15px;&quot;&gt;wtnt=0 rdnt=1&lt;/font&gt;&lt;/div&gt;" style="rounded=0;whiteSpace=wrap;html=1;fillColor=#f8cecc;strokeColor=#b85450;" parent="58" vertex="1">
          <mxGeometry x="335" y="140" width="120" height="50" as="geometry" />
        </mxCell>
        <mxCell id="67" value="&lt;font style=&quot;font-size: 18px;&quot;&gt;&lt;i&gt;page 3&lt;/i&gt;&lt;/font&gt;" style="text;html=1;align=center;verticalAlign=middle;resizable=0;points=[];autosize=1;strokeColor=none;fillColor=none;" parent="58" vertex="1">
          <mxGeometry y="145" width="80" height="40" as="geometry" />
        </mxCell>
        <mxCell id="68" value="&lt;font style=&quot;font-size: 18px;&quot;&gt;cache(RW)&amp;nbsp;&lt;/font&gt;&lt;div&gt;&lt;font style=&quot;font-size: 15px;&quot;&gt;wtnt=1&lt;/font&gt;&lt;/div&gt;" style="rounded=0;whiteSpace=wrap;html=1;fillColor=#f8cecc;strokeColor=#b85450;" parent="58" vertex="1">
          <mxGeometry x="120" y="140" width="120" height="50" as="geometry" />
        </mxCell>
        <mxCell id="70" value="&lt;font style=&quot;font-size: 18px;&quot;&gt;&lt;i&gt;hidelock&lt;/i&gt;&lt;/font&gt;" style="text;html=1;align=center;verticalAlign=middle;resizable=0;points=[];autosize=1;strokeColor=none;fillColor=none;" parent="58" vertex="1">
          <mxGeometry x="-10" y="210" width="90" height="40" as="geometry" />
        </mxCell>
        <mxCell id="71" value="" style="endArrow=classic;html=1;exitX=0.97;exitY=0.6;exitDx=0;exitDy=0;exitPerimeter=0;" parent="58" edge="1">
          <mxGeometry width="50" height="50" relative="1" as="geometry">
            <mxPoint x="77.29999999999995" y="229.5" as="sourcePoint" />
            <mxPoint x="110" y="230" as="targetPoint" />
          </mxGeometry>
        </mxCell>
        <mxCell id="78" value="&lt;font style=&quot;font-size: 17px;&quot;&gt;page 1&lt;/font&gt;&lt;div&gt;&lt;font style=&quot;font-size: 17px;&quot;&gt;frompid = Max&lt;/font&gt;&lt;/div&gt;" style="ellipse;whiteSpace=wrap;html=1;" parent="58" vertex="1">
          <mxGeometry x="120" y="200" width="140" height="60" as="geometry" />
        </mxCell>
        <mxCell id="79" value="&lt;font style=&quot;font-size: 17px;&quot;&gt;page 2&lt;/font&gt;&lt;div&gt;&lt;font style=&quot;font-size: 17px;&quot;&gt;frompid = 1&lt;/font&gt;&lt;/div&gt;" style="ellipse;whiteSpace=wrap;html=1;" parent="58" vertex="1">
          <mxGeometry x="310" y="200" width="140" height="60" as="geometry" />
        </mxCell>
        <mxCell id="80" value="&lt;font style=&quot;font-size: 17px;&quot;&gt;page 3&lt;/font&gt;&lt;div&gt;&lt;font style=&quot;font-size: 17px;&quot;&gt;frompid = 1&lt;/font&gt;&lt;/div&gt;" style="ellipse;whiteSpace=wrap;html=1;" parent="58" vertex="1">
          <mxGeometry x="500" y="200" width="140" height="60" as="geometry" />
        </mxCell>
        <mxCell id="87" value="" style="endArrow=classic;html=1;exitX=0.97;exitY=0.6;exitDx=0;exitDy=0;exitPerimeter=0;" parent="58" edge="1">
          <mxGeometry width="50" height="50" relative="1" as="geometry">
            <mxPoint x="271.29999999999995" y="233.5" as="sourcePoint" />
            <mxPoint x="304" y="234" as="targetPoint" />
          </mxGeometry>
        </mxCell>
        <mxCell id="88" value="" style="endArrow=classic;html=1;exitX=0.97;exitY=0.6;exitDx=0;exitDy=0;exitPerimeter=0;" parent="58" edge="1">
          <mxGeometry width="50" height="50" relative="1" as="geometry">
            <mxPoint x="458.29999999999995" y="232.5" as="sourcePoint" />
            <mxPoint x="491" y="233" as="targetPoint" />
          </mxGeometry>
        </mxCell>
        <mxCell id="69" value="&lt;font style=&quot;font-size: 14px;&quot;&gt;red or yellow? it&#39;s not sure&lt;/font&gt;" style="text;html=1;align=center;verticalAlign=middle;resizable=0;points=[];autosize=1;strokeColor=none;fillColor=none;" parent="54" vertex="1">
          <mxGeometry x="85" y="30" width="190" height="30" as="geometry" />
        </mxCell>
        <mxCell id="pj5GS2XVRTdCzJJkZEOm-189" value="" style="endArrow=none;dashed=1;html=1;dashPattern=1 3;strokeWidth=2;rounded=0;" parent="54" edge="1">
          <mxGeometry width="50" height="50" relative="1" as="geometry">
            <mxPoint x="20" y="20" as="sourcePoint" />
            <mxPoint x="200" y="20" as="targetPoint" />
          </mxGeometry>
        </mxCell>
        <mxCell id="2QzwNc_JTrIj-de4y7Yq-188" value="&lt;font style=&quot;font-size: 18px;&quot;&gt;&lt;b&gt;host1&lt;/b&gt;&lt;/font&gt;" style="text;html=1;align=center;verticalAlign=middle;resizable=0;points=[];autosize=1;strokeColor=none;fillColor=none;" parent="53" vertex="1">
          <mxGeometry x="150" y="300" width="70" height="40" as="geometry" />
        </mxCell>
        <mxCell id="2QzwNc_JTrIj-de4y7Yq-189" value="&lt;font style=&quot;font-size: 18px;&quot;&gt;&lt;b&gt;host2&lt;/b&gt;&lt;/font&gt;&lt;span style=&quot;font-family: monospace; font-size: 0px; text-align: start;&quot;&gt;%3CmxGraphModel%3E%3Croot%3E%3CmxCell%20id%3D%220%22%2F%3E%3CmxCell%20id%3D%221%22%20parent%3D%220%22%2F%3E%3CmxCell%20id%3D%222%22%20value%3D%22%26lt%3Bfont%20style%3D%26quot%3Bfont-size%3A%2018px%3B%26quot%3B%26gt%3B%26lt%3Bb%26gt%3Bhost1%26lt%3B%2Fb%26gt%3B%26lt%3B%2Ffont%26gt%3B%22%20style%3D%22text%3Bhtml%3D1%3Balign%3Dcenter%3BverticalAlign%3Dmiddle%3Bresizable%3D0%3Bpoints%3D%5B%5D%3Bautosize%3D1%3BstrokeColor%3Dnone%3BfillColor%3Dnone%3B%22%20vertex%3D%221%22%20parent%3D%221%22%3E%3CmxGeometry%20x%3D%22175%22%20y%3D%2290%22%20width%3D%2270%22%20height%3D%2240%22%20as%3D%22geometry%22%2F%3E%3C%2FmxCell%3E%3C%2Froot%3E%3C%2FmxGraphModel%3E&lt;/span&gt;" style="text;html=1;align=center;verticalAlign=middle;resizable=0;points=[];autosize=1;strokeColor=none;fillColor=none;" parent="53" vertex="1">
          <mxGeometry x="365" y="300" width="70" height="40" as="geometry" />
        </mxCell>
        <mxCell id="2QzwNc_JTrIj-de4y7Yq-190" value="&lt;font style=&quot;font-size: 18px;&quot;&gt;&lt;b&gt;host3&lt;/b&gt;&lt;/font&gt;" style="text;html=1;align=center;verticalAlign=middle;resizable=0;points=[];autosize=1;strokeColor=none;fillColor=none;" parent="53" vertex="1">
          <mxGeometry x="580" y="300" width="70" height="40" as="geometry" />
        </mxCell>
        <mxCell id="137" value="" style="group" parent="53" vertex="1" connectable="0">
          <mxGeometry x="5" y="340" width="710" height="820" as="geometry" />
        </mxCell>
        <mxCell id="138" value="" style="group;" parent="137" vertex="1" connectable="0">
          <mxGeometry width="710" height="820" as="geometry" />
        </mxCell>
        <mxCell id="139" value="" style="group" parent="138" vertex="1" connectable="0">
          <mxGeometry x="10" y="60" width="700" height="320" as="geometry" />
        </mxCell>
        <mxCell id="143" value="" style="group" parent="139" vertex="1" connectable="0">
          <mxGeometry y="60" width="700" height="260" as="geometry" />
        </mxCell>
        <mxCell id="144" value="&lt;font style=&quot;font-size: 18px;&quot;&gt;home(RO)&amp;nbsp;&lt;/font&gt;&lt;div&gt;&lt;font style=&quot;font-size: 15px;&quot;&gt;wtnt=4 rdnt=1&lt;/font&gt;&lt;/div&gt;" style="rounded=0;whiteSpace=wrap;html=1;fillColor=#fff2cc;strokeColor=#d6b656;" parent="143" vertex="1">
          <mxGeometry x="120" width="120" height="50" as="geometry" />
        </mxCell>
        <mxCell id="145" value="&lt;font style=&quot;font-size: 18px;&quot;&gt;&lt;i&gt;page 1&lt;/i&gt;&lt;/font&gt;" style="text;html=1;align=center;verticalAlign=middle;resizable=0;points=[];autosize=1;strokeColor=none;fillColor=none;" parent="143" vertex="1">
          <mxGeometry y="5" width="80" height="40" as="geometry" />
        </mxCell>
        <mxCell id="146" value="&lt;font style=&quot;font-size: 18px;&quot;&gt;cache(INV)&amp;nbsp;&lt;/font&gt;&lt;div&gt;&lt;font style=&quot;font-size: 15px;&quot;&gt;wtnt=0&lt;/font&gt;&lt;/div&gt;" style="rounded=0;whiteSpace=wrap;html=1;fillColor=#f8cecc;strokeColor=#b85450;" parent="143" vertex="1">
          <mxGeometry x="335" width="120" height="50" as="geometry" />
        </mxCell>
        <mxCell id="147" value="&lt;font style=&quot;font-size: 18px;&quot;&gt;cache(INV)&amp;nbsp;&lt;/font&gt;&lt;div&gt;&lt;font style=&quot;font-size: 15px;&quot;&gt;wtnt=0&lt;/font&gt;&lt;/div&gt;" style="rounded=0;whiteSpace=wrap;html=1;fillColor=#fff2cc;strokeColor=#d6b656;" parent="143" vertex="1">
          <mxGeometry x="550" width="120" height="50" as="geometry" />
        </mxCell>
        <mxCell id="148" value="&lt;font style=&quot;font-size: 18px;&quot;&gt;home(RW)&amp;nbsp;&lt;/font&gt;&lt;div&gt;&lt;font style=&quot;font-size: 15px;&quot;&gt;wtnt=3 rdnt=0&lt;/font&gt;&lt;/div&gt;" style="rounded=0;whiteSpace=wrap;html=1;fillColor=#f8cecc;strokeColor=#b85450;" parent="143" vertex="1">
          <mxGeometry x="120" y="70" width="120" height="50" as="geometry" />
        </mxCell>
        <mxCell id="149" value="&lt;font style=&quot;font-size: 18px;&quot;&gt;&lt;i&gt;page 2&lt;/i&gt;&lt;/font&gt;" style="text;html=1;align=center;verticalAlign=middle;resizable=0;points=[];autosize=1;strokeColor=none;fillColor=none;" parent="143" vertex="1">
          <mxGeometry y="75" width="80" height="40" as="geometry" />
        </mxCell>
        <mxCell id="150" value="&lt;font style=&quot;font-size: 18px;&quot;&gt;cache(INV)&amp;nbsp;&lt;/font&gt;&lt;div&gt;&lt;font style=&quot;font-size: 15px;&quot;&gt;wtnt=0&lt;/font&gt;&lt;/div&gt;" style="rounded=0;whiteSpace=wrap;html=1;" parent="143" vertex="1">
          <mxGeometry x="335" y="70" width="120" height="50" as="geometry" />
        </mxCell>
        <mxCell id="151" value="&lt;font style=&quot;font-size: 18px;&quot;&gt;home(RO)&amp;nbsp;&lt;/font&gt;&lt;div&gt;&lt;font style=&quot;font-size: 15px;&quot;&gt;wtnt=4 rdnt=1&lt;/font&gt;&lt;/div&gt;" style="rounded=0;whiteSpace=wrap;html=1;fillColor=#f8cecc;strokeColor=#b85450;" parent="143" vertex="1">
          <mxGeometry x="335" y="140" width="120" height="50" as="geometry" />
        </mxCell>
        <mxCell id="152" value="&lt;font style=&quot;font-size: 18px;&quot;&gt;&lt;i&gt;page 3&lt;/i&gt;&lt;/font&gt;" style="text;html=1;align=center;verticalAlign=middle;resizable=0;points=[];autosize=1;strokeColor=none;fillColor=none;" parent="143" vertex="1">
          <mxGeometry y="145" width="80" height="40" as="geometry" />
        </mxCell>
        <mxCell id="153" value="&lt;font style=&quot;font-size: 18px;&quot;&gt;cache(INV)&amp;nbsp;&lt;/font&gt;&lt;div&gt;&lt;font style=&quot;font-size: 15px;&quot;&gt;wtnt=0&lt;/font&gt;&lt;/div&gt;" style="rounded=0;whiteSpace=wrap;html=1;fillColor=#f8cecc;strokeColor=#b85450;" parent="143" vertex="1">
          <mxGeometry x="120" y="140" width="120" height="50" as="geometry" />
        </mxCell>
        <mxCell id="165" value="&lt;font style=&quot;font-size: 14px;&quot;&gt;wtnt=4 when enable AD_WD,&amp;nbsp;&lt;/font&gt;&lt;div&gt;&lt;font style=&quot;font-size: 14px;&quot;&gt;otherwise wtnt=0&lt;/font&gt;&lt;/div&gt;" style="text;html=1;align=center;verticalAlign=middle;resizable=0;points=[];autosize=1;strokeColor=none;fillColor=none;" parent="143" vertex="1">
          <mxGeometry x="490" y="140" width="210" height="50" as="geometry" />
        </mxCell>
        <mxCell id="155" value="&lt;font style=&quot;font-size: 18px;&quot;&gt;&lt;i&gt;hidelock&lt;/i&gt;&lt;/font&gt;" style="text;html=1;align=center;verticalAlign=middle;resizable=0;points=[];autosize=1;strokeColor=none;fillColor=none;" parent="143" vertex="1">
          <mxGeometry x="-5" y="210" width="90" height="40" as="geometry" />
        </mxCell>
        <mxCell id="154" value="&lt;font style=&quot;font-size: 14px;&quot;&gt;red or yellow? it&#39;s not sure&lt;/font&gt;" style="text;html=1;align=center;verticalAlign=middle;resizable=0;points=[];autosize=1;strokeColor=none;fillColor=none;" parent="139" vertex="1">
          <mxGeometry x="85" y="30" width="190" height="30" as="geometry" />
        </mxCell>
        <mxCell id="168" value="" style="group;" parent="138" vertex="1" connectable="0">
          <mxGeometry y="370" width="710" height="410" as="geometry" />
        </mxCell>
        <mxCell id="169" value="" style="group" parent="168" vertex="1" connectable="0">
          <mxGeometry x="10" width="700" height="320" as="geometry" />
        </mxCell>
        <mxCell id="173" value="" style="group" parent="169" vertex="1" connectable="0">
          <mxGeometry y="60" width="700" height="260" as="geometry" />
        </mxCell>
        <mxCell id="174" value="&lt;font style=&quot;font-size: 18px;&quot;&gt;home(RO)&amp;nbsp;&lt;/font&gt;&lt;div&gt;&lt;font style=&quot;font-size: 15px;&quot;&gt;wtnt=0 rdnt=1&lt;/font&gt;&lt;/div&gt;" style="rounded=0;whiteSpace=wrap;html=1;fillColor=#fff2cc;strokeColor=#d6b656;" parent="173" vertex="1">
          <mxGeometry x="120" width="120" height="50" as="geometry" />
        </mxCell>
        <mxCell id="175" value="&lt;font style=&quot;font-size: 18px;&quot;&gt;&lt;i&gt;page 1&lt;/i&gt;&lt;/font&gt;" style="text;html=1;align=center;verticalAlign=middle;resizable=0;points=[];autosize=1;strokeColor=none;fillColor=none;" parent="173" vertex="1">
          <mxGeometry y="5" width="80" height="40" as="geometry" />
        </mxCell>
        <mxCell id="176" value="&lt;font style=&quot;font-size: 18px;&quot;&gt;cache(INV)&amp;nbsp;&lt;/font&gt;&lt;div&gt;&lt;font style=&quot;font-size: 15px;&quot;&gt;wtnt=0&lt;/font&gt;&lt;/div&gt;" style="rounded=0;whiteSpace=wrap;html=1;fillColor=#f8cecc;strokeColor=#b85450;" parent="173" vertex="1">
          <mxGeometry x="335" width="120" height="50" as="geometry" />
        </mxCell>
        <mxCell id="177" value="&lt;font style=&quot;font-size: 18px;&quot;&gt;cache(INV)&amp;nbsp;&lt;/font&gt;&lt;div&gt;&lt;font style=&quot;font-size: 15px;&quot;&gt;wtnt=0&lt;/font&gt;&lt;/div&gt;" style="rounded=0;whiteSpace=wrap;html=1;fillColor=#fff2cc;strokeColor=#d6b656;" parent="173" vertex="1">
          <mxGeometry x="550" width="120" height="50" as="geometry" />
        </mxCell>
        <mxCell id="178" value="&lt;font style=&quot;font-size: 18px;&quot;&gt;home(RO)&amp;nbsp;&lt;/font&gt;&lt;div&gt;&lt;font style=&quot;font-size: 15px;&quot;&gt;wtnt=0 rdnt=0&lt;/font&gt;&lt;/div&gt;" style="rounded=0;whiteSpace=wrap;html=1;fillColor=#f8cecc;strokeColor=#b85450;" parent="173" vertex="1">
          <mxGeometry x="120" y="70" width="120" height="50" as="geometry" />
        </mxCell>
        <mxCell id="179" value="&lt;font style=&quot;font-size: 18px;&quot;&gt;&lt;i&gt;page 2&lt;/i&gt;&lt;/font&gt;" style="text;html=1;align=center;verticalAlign=middle;resizable=0;points=[];autosize=1;strokeColor=none;fillColor=none;" parent="173" vertex="1">
          <mxGeometry y="75" width="80" height="40" as="geometry" />
        </mxCell>
        <mxCell id="180" value="&lt;font style=&quot;font-size: 18px;&quot;&gt;cache(INV)&amp;nbsp;&lt;/font&gt;&lt;div&gt;&lt;font style=&quot;font-size: 15px;&quot;&gt;wtnt=0&lt;/font&gt;&lt;/div&gt;" style="rounded=0;whiteSpace=wrap;html=1;" parent="173" vertex="1">
          <mxGeometry x="335" y="70" width="120" height="50" as="geometry" />
        </mxCell>
        <mxCell id="181" value="&lt;font style=&quot;font-size: 18px;&quot;&gt;home(RO)&amp;nbsp;&lt;/font&gt;&lt;div&gt;&lt;font style=&quot;font-size: 15px;&quot;&gt;wtnt=0 rdnt=1&lt;/font&gt;&lt;/div&gt;" style="rounded=0;whiteSpace=wrap;html=1;fillColor=#f8cecc;strokeColor=#b85450;" parent="173" vertex="1">
          <mxGeometry x="335" y="140" width="120" height="50" as="geometry" />
        </mxCell>
        <mxCell id="182" value="&lt;font style=&quot;font-size: 18px;&quot;&gt;&lt;i&gt;page 3&lt;/i&gt;&lt;/font&gt;" style="text;html=1;align=center;verticalAlign=middle;resizable=0;points=[];autosize=1;strokeColor=none;fillColor=none;" parent="173" vertex="1">
          <mxGeometry y="145" width="80" height="40" as="geometry" />
        </mxCell>
        <mxCell id="183" value="&lt;font style=&quot;font-size: 18px;&quot;&gt;cache(INV)&amp;nbsp;&lt;/font&gt;&lt;div&gt;&lt;font style=&quot;font-size: 15px;&quot;&gt;wtnt=0&lt;/font&gt;&lt;/div&gt;" style="rounded=0;whiteSpace=wrap;html=1;fillColor=#f8cecc;strokeColor=#b85450;" parent="173" vertex="1">
          <mxGeometry x="120" y="140" width="120" height="50" as="geometry" />
        </mxCell>
        <mxCell id="186" value="&lt;font style=&quot;font-size: 18px;&quot;&gt;&lt;i&gt;hidelock&lt;/i&gt;&lt;/font&gt;" style="text;html=1;align=center;verticalAlign=middle;resizable=0;points=[];autosize=1;strokeColor=none;fillColor=none;" parent="173" vertex="1">
          <mxGeometry x="-10" y="200" width="90" height="40" as="geometry" />
        </mxCell>
        <mxCell id="185" value="&lt;font style=&quot;font-size: 14px;&quot;&gt;red or yellow? it&#39;s not sure&lt;/font&gt;" style="text;html=1;align=center;verticalAlign=middle;resizable=0;points=[];autosize=1;strokeColor=none;fillColor=none;" parent="169" vertex="1">
          <mxGeometry x="85" y="30" width="190" height="30" as="geometry" />
        </mxCell>
        <mxCell id="pj5GS2XVRTdCzJJkZEOm-191" value="" style="endArrow=none;dashed=1;html=1;dashPattern=1 3;strokeWidth=2;rounded=0;" parent="169" edge="1">
          <mxGeometry width="50" height="50" relative="1" as="geometry">
            <mxPoint x="20" y="20" as="sourcePoint" />
            <mxPoint x="200" y="20" as="targetPoint" />
          </mxGeometry>
        </mxCell>
        <mxCell id="187" value="&lt;b style=&quot;color: rgb(63, 63, 63); scrollbar-color: light-dark(#e2e2e2, #4b4b4b)&lt;br/&gt;&#x9;&#x9;&#x9;&#x9;&#x9;light-dark(#fbfbfb, var(--dark-panel-color)); font-size: 18px;&quot;&gt;&lt;u style=&quot;scrollbar-color: light-dark(#e2e2e2, #4b4b4b)&lt;br/&gt;&#x9;&#x9;&#x9;&#x9;&#x9;light-dark(#fbfbfb, var(--dark-panel-color));&quot;&gt;startinterval()&lt;/u&gt;&lt;/b&gt;" style="text;html=1;align=center;verticalAlign=middle;resizable=0;points=[];autosize=1;strokeColor=none;fillColor=none;" parent="138" vertex="1">
          <mxGeometry x="-110" y="370" width="140" height="40" as="geometry" />
        </mxCell>
        <mxCell id="162" value="&lt;span style=&quot;font-size: 18px;&quot;&gt;&lt;b&gt;&lt;u&gt;barrserver():&lt;/u&gt;&lt;/b&gt;&lt;/span&gt;&lt;div&gt;&lt;span style=&quot;font-size: 18px;&quot;&gt;&lt;b&gt;&lt;u&gt;invalidate()&amp;amp;&amp;amp;&lt;/u&gt;&lt;/b&gt;&lt;/span&gt;&lt;/div&gt;&lt;div&gt;&lt;span style=&quot;font-size: 18px;&quot;&gt;&lt;b&gt;&lt;u&gt;freewtntspace()&lt;/u&gt;&lt;/b&gt;&lt;/span&gt;&lt;/div&gt;" style="text;html=1;align=center;verticalAlign=middle;resizable=0;points=[];autosize=1;strokeColor=none;fillColor=none;" parent="53" vertex="1">
          <mxGeometry x="-105" y="350" width="160" height="80" as="geometry" />
        </mxCell>
        <mxCell id="pj5GS2XVRTdCzJJkZEOm-190" value="" style="endArrow=none;dashed=1;html=1;dashPattern=1 3;strokeWidth=2;rounded=0;" parent="53" edge="1">
          <mxGeometry width="50" height="50" relative="1" as="geometry">
            <mxPoint x="55" y="389.5" as="sourcePoint" />
            <mxPoint x="235" y="389.5" as="targetPoint" />
          </mxGeometry>
        </mxCell>
      </root>
    </mxGraphModel>
  </diagram>
</mxfile>
